<svg xmlns="http://www.w3.org/2000/svg" version="1.1" width="300" height="200" viewBox="-0.25 -0.25 12.5 8.5">
  <rect x="0" y="0" width="12" height="8" stroke="black" stroke-width="0.5" fill="none"/>
  <g stroke="none">
    <rect x="0" y="0" width="12" height="8" fill="#012169"/>
    <path d="
      M 0 0 L 0.9 0 12 7.4 12 8 11.1 8 0 0.6 z
      M 12 0 L 11.1 0 0 7.4 0 8 0.9 8 12 0.6 z
    " fill="white"/>
    <path d="
      M 0 0 L 6 4 5.4 4 0 0.4 z
      M 12 8 L 6 4 6.6 4 12 7.6 z
      M 12 0 L 11.4 0 6 3.6 6 4 z
      M 0 8 L 0.6 8 6 4.4 6 4 z
    " fill="#c8102e"/>
    <path d="M 0 3 H 5 V 0 H 7 V 3 H 12 V 5 H 7 V 8 H 5 V 5 H 0 z" fill="white"/>
    <path d="M 0 3.4 H 5.4 V 0 H 6.6 V 3.4 H 12 V 4.6 H 6.6 V 8 H 5.4 V 4.6 H 0 z" fill="#c8102e"/>
  </g>
</svg>
